<?xml version="1.0" encoding="UTF-8" standalone="no"?>
<!DOCTYPE svg PUBLIC "-//W3C//DTD SVG 1.1//EN" "http://www.w3.org/Graphics/SVG/1.1/DTD/svg11.dtd">
<!-- Generated by graphviz version 2.40.1 (20161225.0304)
 -->
<!-- Title: %0 Pages: 1 -->
<svg xmlns="http://www.w3.org/2000/svg" xmlns:xlink="http://www.w3.org/1999/xlink" width="901pt" height="494pt" viewBox="0.00 0.00 901.00 493.80">
  <g id="graph0" class="graph" transform="scale(1 1) rotate(0) translate(4 489.8)">
    <title>%0</title>
    <polygon fill="#ffffff" stroke="transparent" points="-4,4 -4,-489.8 897,-489.8 897,4 -4,4"/>
    <text text-anchor="middle" x="446.5" y="-469.2" font-family="Helvetica,sans-Serif" font-size="14.00" fill="#4d4d4d">Ontology Tree Visualization</text>
    <!-- 1&#45;&gt;9 -->
    <g id="edge8" class="edge">
      <title>1-&gt;9</title>
      <path fill="none" stroke="#000000" stroke-width="1.5" d="M100.7149,-212.4297C95.7531,-202.5062 89.0836,-189.1671 83.4211,-177.8423"/>
      <polygon fill="#000000" stroke="#000000" stroke-width="1.5" points="84.8654,-176.8175 81.064,-173.128 81.7349,-178.3827 84.8654,-176.8175"/>
    </g>
    <!-- 2&#45;&gt;10 -->
    <g id="edge9" class="edge">
      <title>2-&gt;10</title>
      <path fill="none" stroke="#000000" stroke-width="1.5" d="M849.4297,-212.4297C839.2404,-202.2404 825.4501,-188.45 813.9367,-176.9367"/>
      <polygon fill="#000000" stroke="#000000" stroke-width="1.5" points="814.901,-175.4261 810.128,-173.128 812.4261,-177.901 814.901,-175.4261"/>
    </g>
    <!-- 3&#45;&gt;11 -->
    <g id="edge10" class="edge">
      <title>3-&gt;11</title>
      <path fill="none" stroke="#000000" stroke-width="1.5" d="M506.8019,-212.3441C508.7937,-201.9252 511.5088,-187.7233 513.7874,-175.8045"/>
      <polygon fill="#000000" stroke="#000000" stroke-width="1.5" points="515.5137,-176.0936 514.7338,-170.8539 512.076,-175.4364 515.5137,-176.0936"/>
    </g>
    <!-- 4&#45;&gt;12 -->
    <g id="edge11" class="edge">
      <title>4-&gt;12</title>
      <path fill="none" stroke="#000000" stroke-width="1.5" d="M356.9346,-212.2078C355.0259,-202.9978 352.5299,-190.9531 350.3611,-180.4877"/>
      <polygon fill="#000000" stroke="#000000" stroke-width="1.5" points="352.055,-180.0371 349.3267,-175.4963 348.6278,-180.7474 352.055,-180.0371"/>
    </g>
    <!-- 5&#45;&gt;13 -->
    <g id="edge12" class="edge">
      <title>5-&gt;13</title>
      <path fill="none" stroke="#000000" stroke-width="1.5" d="M648,-212.4297C648,-202.5948 648,-189.405 648,-178.1461"/>
      <polygon fill="#000000" stroke="#000000" stroke-width="1.5" points="649.7501,-178.1279 648,-173.128 646.2501,-178.128 649.7501,-178.1279"/>
    </g>
    <!-- 6&#45;&gt;14 -->
    <g id="edge13" class="edge">
      <title>6-&gt;14</title>
      <path fill="none" stroke="#000000" stroke-width="1.5" d="M216,-212.4297C216,-202.5948 216,-189.405 216,-178.1461"/>
      <polygon fill="#000000" stroke="#000000" stroke-width="1.5" points="217.7501,-178.1279 216,-173.128 214.2501,-178.128 217.7501,-178.1279"/>
    </g>
    <!-- 7&#45;&gt;15 -->
    <g id="edge14" class="edge">
      <title>7-&gt;15</title>
      <path fill="none" stroke="#000000" stroke-width="1.5" d="M432.292,-212.148C432.5011,-201.515 432.7867,-186.9936 433.0252,-174.8632"/>
      <polygon fill="#000000" stroke="#000000" stroke-width="1.5" points="434.7755,-174.8626 433.1242,-169.8291 431.2762,-174.7937 434.7755,-174.8626"/>
    </g>
    <!-- 8&#45;&gt;1 -->
    <g id="edge1" class="edge">
      <title>8-&gt;1</title>
      <path fill="none" stroke="#000000" stroke-width="1.5" d="M395.7762,-290.9503C332.8151,-276.9589 204.037,-248.3415 142.3842,-234.6409"/>
      <polygon fill="#000000" stroke="#000000" stroke-width="1.5" points="142.6073,-232.8979 137.3467,-233.5215 141.848,-236.3145 142.6073,-232.8979"/>
    </g>
    <!-- 8&#45;&gt;2 -->
    <g id="edge2" class="edge">
      <title>8-&gt;2</title>
      <path fill="none" stroke="#000000" stroke-width="1.5" d="M468.089,-292.9852C550.1398,-279.31 749.7612,-246.0398 829.8867,-232.6855"/>
      <polygon fill="#000000" stroke="#000000" stroke-width="1.5" points="830.3448,-234.3834 834.9891,-231.8351 829.7694,-230.931 830.3448,-234.3834"/>
    </g>
    <!-- 8&#45;&gt;3 -->
    <g id="edge3" class="edge">
      <title>8-&gt;3</title>
      <path fill="none" stroke="#000000" stroke-width="1.5" d="M450.1686,-280.8314C461.0976,-269.9024 474.9599,-256.0401 485.8801,-245.1199"/>
      <polygon fill="#000000" stroke="#000000" stroke-width="1.5" points="487.1641,-246.3108 489.4622,-241.5378 484.6892,-243.8359 487.1641,-246.3108"/>
    </g>
    <!-- 8&#45;&gt;4 -->
    <g id="edge4" class="edge">
      <title>8-&gt;4</title>
      <path fill="none" stroke="#000000" stroke-width="1.5" d="M413.8314,-280.8314C402.9024,-269.9024 389.0401,-256.0401 378.1199,-245.1199"/>
      <polygon fill="#000000" stroke="#000000" stroke-width="1.5" points="379.3108,-243.8359 374.5378,-241.5378 376.8359,-246.3108 379.3108,-243.8359"/>
    </g>
    <!-- 8&#45;&gt;5 -->
    <g id="edge5" class="edge">
      <title>8-&gt;5</title>
      <path fill="none" stroke="#000000" stroke-width="1.5" d="M468.1535,-286.9488C508.6114,-273.4629 573.6874,-251.7709 613.4714,-238.5095"/>
      <polygon fill="#000000" stroke="#000000" stroke-width="1.5" points="614.4826,-240.0172 618.6726,-236.7758 613.3758,-236.6968 614.4826,-240.0172"/>
    </g>
    <!-- 8&#45;&gt;6 -->
    <g id="edge6" class="edge">
      <title>8-&gt;6</title>
      <path fill="none" stroke="#000000" stroke-width="1.5" d="M395.8465,-286.9488C355.3886,-273.4629 290.3126,-251.7709 250.5286,-238.5095"/>
      <polygon fill="#000000" stroke="#000000" stroke-width="1.5" points="250.6242,-236.6968 245.3274,-236.7758 249.5174,-240.0172 250.6242,-236.6968"/>
    </g>
    <!-- 8&#45;&gt;7 -->
    <g id="edge7" class="edge">
      <title>8-&gt;7</title>
      <path fill="none" stroke="#000000" stroke-width="1.5" d="M432,-280.8314C432,-270.3775 432,-257.24 432,-246.5605"/>
      <polygon fill="#000000" stroke="#000000" stroke-width="1.5" points="433.7501,-246.5377 432,-241.5378 430.2501,-246.5378 433.7501,-246.5377"/>
    </g>
    <!-- 9&#45;&gt;16 -->
    <g id="edge15" class="edge">
      <title>9-&gt;16</title>
      <path fill="none" stroke="#000000" stroke-width="1.5" d="M72,-136.8314C72,-126.3775 72,-113.24 72,-102.5605"/>
      <polygon fill="#000000" stroke="#000000" stroke-width="1.5" points="73.7501,-102.5377 72,-97.5378 70.2501,-102.5378 73.7501,-102.5377"/>
    </g>
    <!-- 10&#45;&gt;17 -->
    <g id="edge16" class="edge">
      <title>10-&gt;17</title>
      <path fill="none" stroke="#000000" stroke-width="1.5" d="M792,-136.8314C792,-126.3775 792,-113.24 792,-102.5605"/>
      <polygon fill="#000000" stroke="#000000" stroke-width="1.5" points="793.7501,-102.5377 792,-97.5378 790.2501,-102.5378 793.7501,-102.5377"/>
    </g>
    <!-- 11&#45;&gt;18 -->
    <g id="edge17" class="edge">
      <title>11-&gt;18</title>
      <path fill="none" stroke="#000000" stroke-width="1.5" d="M514.4557,-134.4743C512.471,-124.7032 510.0284,-112.6782 508.0033,-102.7086"/>
      <polygon fill="#000000" stroke="#000000" stroke-width="1.5" points="509.6974,-102.2569 506.987,-97.7053 506.2674,-102.9537 509.6974,-102.2569"/>
    </g>
    <!-- 12&#45;&gt;19 -->
    <g id="edge18" class="edge">
      <title>12-&gt;19</title>
      <path fill="none" stroke="#000000" stroke-width="1.5" d="M358.0174,-138.8961C365.6429,-127.6741 375.3785,-113.347 383.084,-102.0074"/>
      <polygon fill="#000000" stroke="#000000" stroke-width="1.5" points="384.6728,-102.783 386.0356,-97.6639 381.7779,-100.8158 384.6728,-102.783"/>
    </g>
    <!-- 12&#45;&gt;36 -->
    <g id="edge35" class="edge">
      <title>12-&gt;36</title>
      <path fill="none" stroke="#000000" stroke-width="1.5" d="M340.2196,-138.8961C337.0209,-127.8728 332.9528,-113.8532 329.691,-102.6123"/>
      <polygon fill="#000000" stroke="#000000" stroke-width="1.5" points="331.3292,-101.9781 328.2551,-97.6639 327.9679,-102.9535 331.3292,-101.9781"/>
    </g>
    <!-- 13&#45;&gt;20 -->
    <g id="edge19" class="edge">
      <title>13-&gt;20</title>
      <path fill="none" stroke="#000000" stroke-width="1.5" d="M648,-136.8314C648,-126.3775 648,-113.24 648,-102.5605"/>
      <polygon fill="#000000" stroke="#000000" stroke-width="1.5" points="649.7501,-102.5377 648,-97.5378 646.2501,-102.5378 649.7501,-102.5377"/>
    </g>
    <!-- 13&#45;&gt;37 -->
    <g id="edge36" class="edge">
      <title>13-&gt;37</title>
      <path fill="none" stroke="#000000" stroke-width="1.5" d="M666.1686,-136.8314C677.0976,-125.9024 690.9599,-112.0401 701.8801,-101.1199"/>
      <polygon fill="#000000" stroke="#000000" stroke-width="1.5" points="703.1641,-102.3108 705.4622,-97.5378 700.6892,-99.8359 703.1641,-102.3108"/>
    </g>
    <!-- 14&#45;&gt;21 -->
    <g id="edge20" class="edge">
      <title>14-&gt;21</title>
      <path fill="none" stroke="#000000" stroke-width="1.5" d="M225.0843,-136.8314C230.3587,-126.2825 236.9995,-113.0009 242.3651,-102.2698"/>
      <polygon fill="#000000" stroke="#000000" stroke-width="1.5" points="244.0602,-102.7926 244.7311,-97.5378 240.9297,-101.2273 244.0602,-102.7926"/>
    </g>
    <!-- 14&#45;&gt;38 -->
    <g id="edge37" class="edge">
      <title>14-&gt;38</title>
      <path fill="none" stroke="#000000" stroke-width="1.5" d="M206.9157,-136.8314C201.6413,-126.2825 195.0005,-113.0009 189.6349,-102.2698"/>
      <polygon fill="#000000" stroke="#000000" stroke-width="1.5" points="191.0703,-101.2273 187.2689,-97.5378 187.9398,-102.7926 191.0703,-101.2273"/>
    </g>
    <!-- 16&#45;&gt;22 -->
    <g id="edge21" class="edge">
      <title>16-&gt;22</title>
      <path fill="none" stroke="#000000" stroke-width="1.5" d="M72,-68.4297C72,-56.5994 72,-39.9145 72,-27.5755"/>
      <polygon fill="#000000" stroke="#000000" stroke-width="1.5" points="73.7501,-27.245 72,-22.2451 70.2501,-27.2451 73.7501,-27.245"/>
    </g>
    <!-- 17&#45;&gt;23 -->
    <g id="edge22" class="edge">
      <title>17-&gt;23</title>
      <path fill="none" stroke="#000000" stroke-width="1.5" d="M792,-68.4297C792,-56.5994 792,-39.9145 792,-27.5755"/>
      <polygon fill="#000000" stroke="#000000" stroke-width="1.5" points="793.7501,-27.245 792,-22.2451 790.2501,-27.2451 793.7501,-27.245"/>
    </g>
    <!-- 18&#45;&gt;24 -->
    <g id="edge23" class="edge">
      <title>18-&gt;24</title>
      <path fill="none" stroke="#000000" stroke-width="1.5" d="M504,-68.4297C504,-56.5994 504,-39.9145 504,-27.5755"/>
      <polygon fill="#000000" stroke="#000000" stroke-width="1.5" points="505.7501,-27.245 504,-22.2451 502.2501,-27.2451 505.7501,-27.245"/>
    </g>
    <!-- 19&#45;&gt;25 -->
    <g id="edge24" class="edge">
      <title>19-&gt;25</title>
      <path fill="none" stroke="#000000" stroke-width="1.5" d="M396,-68.4297C396,-56.5994 396,-39.9145 396,-27.5755"/>
      <polygon fill="#000000" stroke="#000000" stroke-width="1.5" points="397.7501,-27.245 396,-22.2451 394.2501,-27.2451 397.7501,-27.245"/>
    </g>
    <!-- 20&#45;&gt;26 -->
    <g id="edge25" class="edge">
      <title>20-&gt;26</title>
      <path fill="none" stroke="#000000" stroke-width="1.5" d="M648,-68.4297C648,-56.5994 648,-39.9145 648,-27.5755"/>
      <polygon fill="#000000" stroke="#000000" stroke-width="1.5" points="649.7501,-27.245 648,-22.2451 646.2501,-27.2451 649.7501,-27.245"/>
    </g>
    <!-- 21&#45;&gt;27 -->
    <g id="edge26" class="edge">
      <title>21-&gt;27</title>
      <path fill="none" stroke="#000000" stroke-width="1.5" d="M252,-68.4297C252,-56.5994 252,-39.9145 252,-27.5755"/>
      <polygon fill="#000000" stroke="#000000" stroke-width="1.5" points="253.7501,-27.245 252,-22.2451 250.2501,-27.2451 253.7501,-27.245"/>
    </g>
    <!-- 28&#45;&gt;9 -->
    <g id="edge31" class="edge">
      <title>28-&gt;9</title>
      <path fill="none" stroke="#000000" stroke-width="1.5" stroke-dasharray="1,5" d="M43.2851,-212.4297C48.2469,-202.5062 54.9164,-189.1671 60.5789,-177.8423"/>
      <polygon fill="#000000" stroke="#000000" stroke-width="1.5" points="62.2651,-178.3827 62.936,-173.128 59.1346,-176.8175 62.2651,-178.3827"/>
    </g>
    <!-- 29&#45;&gt;10 -->
    <g id="edge32" class="edge">
      <title>29-&gt;10</title>
      <path fill="none" stroke="#000000" stroke-width="1.5" stroke-dasharray="1,5" d="M792,-212.4297C792,-202.5948 792,-189.405 792,-178.1461"/>
      <polygon fill="#000000" stroke="#000000" stroke-width="1.5" points="793.7501,-178.1279 792,-173.128 790.2501,-178.128 793.7501,-178.1279"/>
    </g>
    <!-- 30&#45;&gt;11 -->
    <g id="edge33" class="edge">
      <title>30-&gt;11</title>
      <path fill="none" stroke="#000000" stroke-width="1.5" stroke-dasharray="1,5" d="M564.577,-212.3441C556.2389,-201.6461 544.7921,-186.9597 535.3551,-174.8518"/>
      <polygon fill="#000000" stroke="#000000" stroke-width="1.5" points="536.6931,-173.7218 532.2391,-170.8539 533.9326,-175.8734 536.6931,-173.7218"/>
    </g>
    <!-- 31&#45;&gt;8 -->
    <g id="edge34" class="edge">
      <title>31-&gt;8</title>
      <path fill="none" stroke="#000000" stroke-width="1.5" stroke-dasharray="1,5" d="M432,-356.4297C432,-346.5948 432,-333.405 432,-322.1461"/>
      <polygon fill="#000000" stroke="#000000" stroke-width="1.5" points="433.7501,-322.1279 432,-317.128 430.2501,-322.128 433.7501,-322.1279"/>
    </g>
    <!-- 32&#45;&gt;28 -->
    <g id="edge27" class="edge">
      <title>32-&gt;28</title>
      <path fill="none" stroke="#000000" stroke-width="1.5" stroke-dasharray="1,5" d="M36,-424.9555C36,-384.7976 36,-288.3141 36,-246.6771"/>
      <polygon fill="#000000" stroke="#000000" stroke-width="1.5" points="37.7501,-246.6443 36,-241.6443 34.2501,-246.6444 37.7501,-246.6443"/>
    </g>
    <!-- 33&#45;&gt;29 -->
    <g id="edge28" class="edge">
      <title>33-&gt;29</title>
      <path fill="none" stroke="#000000" stroke-width="1.5" stroke-dasharray="1,5" d="M792,-424.9555C792,-384.7976 792,-288.3141 792,-246.6771"/>
      <polygon fill="#000000" stroke="#000000" stroke-width="1.5" points="793.7501,-246.6443 792,-241.6443 790.2501,-246.6444 793.7501,-246.6443"/>
    </g>
    <!-- 34&#45;&gt;30 -->
    <g id="edge29" class="edge">
      <title>34-&gt;30</title>
      <path fill="none" stroke="#000000" stroke-width="1.5" stroke-dasharray="1,5" d="M576,-424.9555C576,-384.7976 576,-288.3141 576,-246.6771"/>
      <polygon fill="#000000" stroke="#000000" stroke-width="1.5" points="577.7501,-246.6443 576,-241.6443 574.2501,-246.6444 577.7501,-246.6443"/>
    </g>
    <!-- 35&#45;&gt;31 -->
    <g id="edge30" class="edge">
      <title>35-&gt;31</title>
      <path fill="none" stroke="#000000" stroke-width="1.5" stroke-dasharray="1,5" d="M432,-424.8314C432,-414.3776 432,-401.24 432,-390.5605"/>
      <polygon fill="#000000" stroke="#000000" stroke-width="1.5" points="433.7501,-390.5377 432,-385.5378 430.2501,-390.5378 433.7501,-390.5377"/>
    </g>
    <!-- 36&#45;&gt;39 -->
    <g id="edge38" class="edge">
      <title>36-&gt;39</title>
      <path fill="none" stroke="#000000" stroke-width="1.5" d="M324,-68.4297C324,-56.5994 324,-39.9145 324,-27.5755"/>
      <polygon fill="#000000" stroke="#000000" stroke-width="1.5" points="325.7501,-27.245 324,-22.2451 322.2501,-27.2451 325.7501,-27.245"/>
    </g>
    <!-- 37&#45;&gt;40 -->
    <g id="edge39" class="edge">
      <title>37-&gt;40</title>
      <path fill="none" stroke="#000000" stroke-width="1.5" d="M720,-68.4297C720,-56.5994 720,-39.9145 720,-27.5755"/>
      <polygon fill="#000000" stroke="#000000" stroke-width="1.5" points="721.7501,-27.245 720,-22.2451 718.2501,-27.2451 721.7501,-27.245"/>
    </g>
    <!-- 38&#45;&gt;41 -->
    <g id="edge40" class="edge">
      <title>38-&gt;41</title>
      <path fill="none" stroke="#000000" stroke-width="1.5" d="M180,-68.4297C180,-56.5994 180,-39.9145 180,-27.5755"/>
      <polygon fill="#000000" stroke="#000000" stroke-width="1.5" points="181.7501,-27.245 180,-22.2451 178.2501,-27.2451 181.7501,-27.245"/>
    </g>
    <!-- 1 -->
    <g id="node1" class="node">
      <title>1</title>
      <polygon fill="#add8e6" stroke="#000000" points="137,-241.5 79,-241.5 79,-212.5 137,-212.5 137,-241.5"/>
      <text text-anchor="middle" x="108" y="-225.5" font-family="Helvetica,sans-Serif" font-size="5.00" fill="#000000">pmd:hasIdentifier</text>
    </g>
    <!-- 2 -->
    <g id="node2" class="node">
      <title>2</title>
      <polygon fill="#add8e6" stroke="#000000" points="893,-241.5 835,-241.5 835,-212.5 893,-212.5 893,-241.5"/>
      <text text-anchor="middle" x="864" y="-225.5" font-family="Helvetica,sans-Serif" font-size="5.00" fill="#000000">pmd:characteristicOf</text>
    </g>
    <!-- 3 -->
    <g id="node3" class="node">
      <title>3</title>
      <polygon fill="#add8e6" stroke="#000000" points="533,-241.5 475,-241.5 475,-212.5 533,-212.5 533,-241.5"/>
      <text text-anchor="middle" x="504" y="-225.5" font-family="Helvetica,sans-Serif" font-size="5.00" fill="#000000">pmd:characteristicOf</text>
    </g>
    <!-- 4 -->
    <g id="node4" class="node">
      <title>4</title>
      <polygon fill="#add8e6" stroke="#000000" points="389,-241.5 331,-241.5 331,-212.5 389,-212.5 389,-241.5"/>
      <text text-anchor="middle" x="360" y="-225.5" font-family="Helvetica,sans-Serif" font-size="5.00" fill="#000000">pmd:characteristicOf</text>
    </g>
    <!-- 5 -->
    <g id="node5" class="node">
      <title>5</title>
      <polygon fill="#add8e6" stroke="#000000" points="677,-241.5 619,-241.5 619,-212.5 677,-212.5 677,-241.5"/>
      <text text-anchor="middle" x="648" y="-225.5" font-family="Helvetica,sans-Serif" font-size="5.00" fill="#000000">pmd:characteristicOf</text>
    </g>
    <!-- 6 -->
    <g id="node6" class="node">
      <title>6</title>
      <polygon fill="#add8e6" stroke="#000000" points="245,-241.5 187,-241.5 187,-212.5 245,-212.5 245,-241.5"/>
      <text text-anchor="middle" x="216" y="-225.5" font-family="Helvetica,sans-Serif" font-size="5.00" fill="#000000">pmd:characteristicOf</text>
    </g>
    <!-- 7 -->
    <g id="node7" class="node">
      <title>7</title>
      <polygon fill="#add8e6" stroke="#000000" points="461,-241.5 403,-241.5 403,-212.5 461,-212.5 461,-241.5"/>
      <text text-anchor="middle" x="432" y="-225.5" font-family="Helvetica,sans-Serif" font-size="5.00" fill="#000000">inputOf</text>
    </g>
    <!-- 8 -->
    <g id="node8" class="node">
      <title>8</title>
      <polygon fill="#4876ff" stroke="#000000" points="468,-317 396,-317 396,-281 468,-281 468,-317"/>
      <text text-anchor="middle" x="432" y="-297.5" font-family="Helvetica,sans-Serif" font-size="5.00" fill="#ffffff">XraySample</text>
    </g>
    <!-- 9 -->
    <g id="node9" class="node">
      <title>9</title>
      <polygon fill="#4876ff" stroke="#000000" points="108,-173 36,-173 36,-137 108,-137 108,-173"/>
      <text text-anchor="middle" x="72" y="-153.5" font-family="Helvetica,sans-Serif" font-size="5.00" fill="#ffffff">SampleID</text>
    </g>
    <!-- 10 -->
    <g id="node10" class="node">
      <title>10</title>
      <polygon fill="#4876ff" stroke="#000000" points="828,-173 756,-173 756,-137 828,-137 828,-173"/>
      <text text-anchor="middle" x="792" y="-153.5" font-family="Helvetica,sans-Serif" font-size="5.00" fill="#ffffff">ProcessingMethod</text>
    </g>
    <!-- 11 -->
    <g id="node11" class="node">
      <title>11</title>
      <polygon fill="#4876ff" stroke="#000000" points="554.1818,-170.8182 482.1818,-170.8182 482.1818,-134.8182 554.1818,-134.8182 554.1818,-170.8182"/>
      <text text-anchor="middle" x="518.1818" y="-151.3182" font-family="Helvetica,sans-Serif" font-size="5.00" fill="#ffffff">MaterialName</text>
    </g>
    <!-- 12 -->
    <g id="node12" class="node">
      <title>12</title>
      <polygon fill="#4876ff" stroke="#000000" points="381.5454,-175.25 309.5454,-175.25 309.5454,-139.25 381.5454,-139.25 381.5454,-175.25"/>
      <text text-anchor="middle" x="345.5454" y="-155.75" font-family="Helvetica,sans-Serif" font-size="5.00" fill="#ffffff">pmd:Length</text>
    </g>
    <!-- 13 -->
    <g id="node13" class="node">
      <title>13</title>
      <polygon fill="#4876ff" stroke="#000000" points="684,-173 612,-173 612,-137 684,-137 684,-173"/>
      <text text-anchor="middle" x="648" y="-153.5" font-family="Helvetica,sans-Serif" font-size="5.00" fill="#ffffff">pmd:Width</text>
    </g>
    <!-- 14 -->
    <g id="node14" class="node">
      <title>14</title>
      <polygon fill="#4876ff" stroke="#000000" points="252,-173 180,-173 180,-137 252,-137 252,-173"/>
      <text text-anchor="middle" x="216" y="-153.5" font-family="Helvetica,sans-Serif" font-size="5.00" fill="#ffffff">pmd:Thickness</text>
    </g>
    <!-- 15 -->
    <g id="node15" class="node">
      <title>15</title>
      <polygon fill="#4876ff" stroke="#000000" points="469.4783,-169.8261 397.4783,-169.8261 397.4783,-133.8261 469.4783,-133.8261 469.4783,-169.8261"/>
      <text text-anchor="middle" x="433.4783" y="-150.3261" font-family="Helvetica,sans-Serif" font-size="5.00" fill="#ffffff">XrayTool</text>
    </g>
    <!-- 16 -->
    <g id="node16" class="node">
      <title>16</title>
      <polygon fill="#add8e6" stroke="#000000" points="101,-97.5 43,-97.5 43,-68.5 101,-68.5 101,-97.5"/>
      <text text-anchor="middle" x="72" y="-81.5" font-family="Helvetica,sans-Serif" font-size="5.00" fill="#000000">pmd:value</text>
    </g>
    <!-- 17 -->
    <g id="node17" class="node">
      <title>17</title>
      <polygon fill="#add8e6" stroke="#000000" points="821,-97.5 763,-97.5 763,-68.5 821,-68.5 821,-97.5"/>
      <text text-anchor="middle" x="792" y="-81.5" font-family="Helvetica,sans-Serif" font-size="5.00" fill="#000000">pmd:value</text>
    </g>
    <!-- 18 -->
    <g id="node18" class="node">
      <title>18</title>
      <polygon fill="#add8e6" stroke="#000000" points="533,-97.5 475,-97.5 475,-68.5 533,-68.5 533,-97.5"/>
      <text text-anchor="middle" x="504" y="-81.5" font-family="Helvetica,sans-Serif" font-size="5.00" fill="#000000">pmd:value</text>
    </g>
    <!-- 19 -->
    <g id="node19" class="node">
      <title>19</title>
      <polygon fill="#add8e6" stroke="#000000" points="425,-97.5 367,-97.5 367,-68.5 425,-68.5 425,-97.5"/>
      <text text-anchor="middle" x="396" y="-81.5" font-family="Helvetica,sans-Serif" font-size="5.00" fill="#000000">pmd:value</text>
    </g>
    <!-- 20 -->
    <g id="node20" class="node">
      <title>20</title>
      <polygon fill="#add8e6" stroke="#000000" points="677,-97.5 619,-97.5 619,-68.5 677,-68.5 677,-97.5"/>
      <text text-anchor="middle" x="648" y="-81.5" font-family="Helvetica,sans-Serif" font-size="5.00" fill="#000000">pmd:value</text>
    </g>
    <!-- 21 -->
    <g id="node21" class="node">
      <title>21</title>
      <polygon fill="#add8e6" stroke="#000000" points="281,-97.5 223,-97.5 223,-68.5 281,-68.5 281,-97.5"/>
      <text text-anchor="middle" x="252" y="-81.5" font-family="Helvetica,sans-Serif" font-size="5.00" fill="#000000">pmd:value</text>
    </g>
    <!-- 22 -->
    <g id="node22" class="node">
      <title>22</title>
      <ellipse fill="#ffff00" stroke="#000000" cx="72" cy="-11" rx="21.5" ry="11"/>
      <text text-anchor="middle" x="72" y="-9.5" font-family="Helvetica,sans-Serif" font-size="5.00" fill="#000000">xsd:string</text>
    </g>
    <!-- 23 -->
    <g id="node23" class="node">
      <title>23</title>
      <ellipse fill="#ffff00" stroke="#000000" cx="792" cy="-11" rx="21.5" ry="11"/>
      <text text-anchor="middle" x="792" y="-9.5" font-family="Helvetica,sans-Serif" font-size="5.00" fill="#000000">xsd:string</text>
    </g>
    <!-- 24 -->
    <g id="node24" class="node">
      <title>24</title>
      <ellipse fill="#ffff00" stroke="#000000" cx="504" cy="-11" rx="21.5" ry="11"/>
      <text text-anchor="middle" x="504" y="-9.5" font-family="Helvetica,sans-Serif" font-size="5.00" fill="#000000">xsd:string</text>
    </g>
    <!-- 25 -->
    <g id="node25" class="node">
      <title>25</title>
      <ellipse fill="#ffff00" stroke="#000000" cx="396" cy="-11" rx="21.5" ry="11"/>
      <text text-anchor="middle" x="396" y="-9.5" font-family="Helvetica,sans-Serif" font-size="5.00" fill="#000000">xsd:float</text>
    </g>
    <!-- 26 -->
    <g id="node26" class="node">
      <title>26</title>
      <ellipse fill="#ffff00" stroke="#000000" cx="648" cy="-11" rx="21.5" ry="11"/>
      <text text-anchor="middle" x="648" y="-9.5" font-family="Helvetica,sans-Serif" font-size="5.00" fill="#000000">xsd:float</text>
    </g>
    <!-- 27 -->
    <g id="node27" class="node">
      <title>27</title>
      <ellipse fill="#ffff00" stroke="#000000" cx="252" cy="-11" rx="21.5" ry="11"/>
      <text text-anchor="middle" x="252" y="-9.5" font-family="Helvetica,sans-Serif" font-size="5.00" fill="#000000">xsd:float</text>
    </g>
    <!-- 28 -->
    <g id="node28" class="node">
      <title>28</title>
      <polygon fill="#ffffff" stroke="#0000ff" points="65,-241.5 7,-241.5 7,-212.5 65,-212.5 65,-241.5"/>
      <text text-anchor="middle" x="36" y="-225.5" font-family="Helvetica,sans-Serif" font-size="5.00" fill="#000000">rdfs:SubclassOf</text>
    </g>
    <!-- 29 -->
    <g id="node29" class="node">
      <title>29</title>
      <polygon fill="#ffffff" stroke="#0000ff" points="821,-241.5 763,-241.5 763,-212.5 821,-212.5 821,-241.5"/>
      <text text-anchor="middle" x="792" y="-225.5" font-family="Helvetica,sans-Serif" font-size="5.00" fill="#000000">rdfs:SubclassOf</text>
    </g>
    <!-- 30 -->
    <g id="node30" class="node">
      <title>30</title>
      <polygon fill="#ffffff" stroke="#0000ff" points="605,-241.5 547,-241.5 547,-212.5 605,-212.5 605,-241.5"/>
      <text text-anchor="middle" x="576" y="-225.5" font-family="Helvetica,sans-Serif" font-size="5.00" fill="#000000">rdfs:SubclassOf</text>
    </g>
    <!-- 31 -->
    <g id="node31" class="node">
      <title>31</title>
      <polygon fill="#ffffff" stroke="#0000ff" points="461,-385.5 403,-385.5 403,-356.5 461,-356.5 461,-385.5"/>
      <text text-anchor="middle" x="432" y="-369.5" font-family="Helvetica,sans-Serif" font-size="5.00" fill="#000000">rdfs:SubclassOf</text>
    </g>
    <!-- 32 -->
    <g id="node32" class="node">
      <title>32</title>
      <polygon fill="#4876ff" stroke="#000000" points="72,-461 0,-461 0,-425 72,-425 72,-461"/>
      <text text-anchor="middle" x="36" y="-441.5" font-family="Helvetica,sans-Serif" font-size="5.00" fill="#ffffff">pmd:SpecimenName</text>
    </g>
    <!-- 33 -->
    <g id="node33" class="node">
      <title>33</title>
      <polygon fill="#4876ff" stroke="#000000" points="828,-461 756,-461 756,-425 828,-425 828,-461"/>
      <text text-anchor="middle" x="792" y="-441.5" font-family="Helvetica,sans-Serif" font-size="5.00" fill="#ffffff">pmd:ManufacturingProcess</text>
    </g>
    <!-- 34 -->
    <g id="node34" class="node">
      <title>34</title>
      <polygon fill="#4876ff" stroke="#000000" points="612,-461 540,-461 540,-425 612,-425 612,-461"/>
      <text text-anchor="middle" x="576" y="-441.5" font-family="Helvetica,sans-Serif" font-size="5.00" fill="#ffffff">pmd:MaterialDesignation</text>
    </g>
    <!-- 35 -->
    <g id="node35" class="node">
      <title>35</title>
      <polygon fill="#4876ff" stroke="#000000" points="468,-461 396,-461 396,-425 468,-425 468,-461"/>
      <text text-anchor="middle" x="432" y="-441.5" font-family="Helvetica,sans-Serif" font-size="5.00" fill="#ffffff">pmd:Sample</text>
    </g>
    <!-- 36 -->
    <g id="node36" class="node">
      <title>36</title>
      <polygon fill="#add8e6" stroke="#000000" points="353,-97.5 295,-97.5 295,-68.5 353,-68.5 353,-97.5"/>
      <text text-anchor="middle" x="324" y="-81.5" font-family="Helvetica,sans-Serif" font-size="5.00" fill="#000000">pmd:unit</text>
    </g>
    <!-- 37 -->
    <g id="node37" class="node">
      <title>37</title>
      <polygon fill="#add8e6" stroke="#000000" points="749,-97.5 691,-97.5 691,-68.5 749,-68.5 749,-97.5"/>
      <text text-anchor="middle" x="720" y="-81.5" font-family="Helvetica,sans-Serif" font-size="5.00" fill="#000000">pmd:unit</text>
    </g>
    <!-- 38 -->
    <g id="node38" class="node">
      <title>38</title>
      <polygon fill="#add8e6" stroke="#000000" points="209,-97.5 151,-97.5 151,-68.5 209,-68.5 209,-97.5"/>
      <text text-anchor="middle" x="180" y="-81.5" font-family="Helvetica,sans-Serif" font-size="5.00" fill="#000000">pmd:unit</text>
    </g>
    <!-- 39 -->
    <g id="node39" class="node">
      <title>39</title>
      <ellipse fill="#ffff00" stroke="#000000" cx="324" cy="-11" rx="21.5" ry="11"/>
      <text text-anchor="middle" x="324" y="-9.5" font-family="Helvetica,sans-Serif" font-size="5.00" fill="#000000">qudt:MilliM</text>
    </g>
    <!-- 40 -->
    <g id="node40" class="node">
      <title>40</title>
      <ellipse fill="#ffff00" stroke="#000000" cx="720" cy="-11" rx="21.5" ry="11"/>
      <text text-anchor="middle" x="720" y="-9.5" font-family="Helvetica,sans-Serif" font-size="5.00" fill="#000000">qudt:MilliM</text>
    </g>
    <!-- 41 -->
    <g id="node41" class="node">
      <title>41</title>
      <ellipse fill="#ffff00" stroke="#000000" cx="180" cy="-11" rx="21.5" ry="11"/>
      <text text-anchor="middle" x="180" y="-9.5" font-family="Helvetica,sans-Serif" font-size="5.00" fill="#000000">qudt:MilliM</text>
    </g>
  </g>
</svg>
